<?xml version="1.0" encoding="UTF-8"?>
<svg width="1200pt" height="1200pt" fill="currentColor" version="1.1" viewBox="0 0 1200 1200" xmlns="http://www.w3.org/2000/svg">
 <path d="m180.82 327.29c-10.185-11.768-15.831-27.442-15.884-44.065-0.21109-34.566 24.064-62.799 54.092-63.011h0.21109c29.922 0 54.355 28.023 54.567 62.535 0.15832 34.619-24.17 62.905-54.145 63.011h-0.21109c-14.566 0-28.286-6.5438-38.577-18.47zm297.27 196.69c4.5384 0 9.1296-1.7415 12.56-5.2244l148.49-148.49 49.289 43.96c7.0188 6.2799 17.732 5.9633 24.433-0.68604l162.95-162.95v19.157c0 9.8157 7.9686 17.784 17.784 17.784s17.784-7.9686 17.784-17.784v-67.337c0-9.8157-7.9686-17.784-17.784-17.784h-67.337c-9.8157 0-17.784 7.9686-17.784 17.784s7.9686 17.784 17.784 17.784h29.605l-156.31 156.31-49.289-43.96c-7.0188-6.2799-17.732-5.9633-24.433 0.68605l-160.37 160.37c-6.9659 6.966-6.9659 18.207 0 25.172 3.483 3.483 8.0214 5.2244 12.56 5.2244zm644.4 552.53h-45.701v-695.97c0-4.9078-4.0107-8.8658-8.8657-8.8658h-183.18c-4.9079 0-8.8658 4.0107-8.8658 8.8658v695.97h-49.976v-551.47c0-4.9079-4.0107-8.8658-8.8658-8.8658h-183.18c-4.9079 0-8.8658 4.0107-8.8658 8.8658v551.47h-49.976v-347.52c0-4.9079-4.0107-8.8658-8.8658-8.8658h-183.18c-4.9079 0-8.8658 4.0107-8.8658 8.8658v347.52h-49.976v-235.59c0-4.9079-4.0107-8.8658-8.8658-8.8658h-183.18c-4.9079 0-8.8658 4.0107-8.8658 8.8658v235.59h-45.701c-9.8157 0-17.784 7.9686-17.784 17.784s7.9686 17.784 17.784 17.784h1045.2c9.8157 0 17.784-7.9686 17.784-17.784s-7.9686-17.784-17.784-17.784zm-128.4-825.37h93.512c6.6492 0 12.718-3.694 15.779-9.6045 3.0611-5.9105 2.5859-12.982-1.2138-18.417l-30.08-42.904 30.08-42.904c3.7997-5.4355 4.2746-12.56 1.2138-18.47-3.1135-5.9105-9.1296-9.499-15.884-9.5518l-93.408 0.5805v-4.169c0-9.8157-7.9686-17.784-17.784-17.784s-17.784 7.9686-17.784 17.784v230.35h35.569zm-674.33 225.66c7.8103 0 15.568-2.1637 22.745-6.3855l66.123-39.316c12.982-7.7048 17.256-24.486 9.5518-37.468-3.694-6.2799-9.7101-10.713-16.781-12.507-7.1242-1.7943-14.46-0.73881-20.687 2.9552l-61.375 36.571-21.478-13.563 12.929 68.815c3.0081 0.63327 6.0161 0.9499 8.9714 0.9499zm-213.94 285.24c5.0662 7.1242 12.665 11.874 21.372 13.298 1.847 0.31663 3.694 0.47496 5.4883 0.47496 6.8077 0 13.351-2.1109 18.945-6.0688l101.27-72.298c10.607-7.4936 15.568-19.632 14.407-35.094l-2.0581-28.18-14.987 2.797c-5.4355 1.0027-10.977 1.5304-16.465 1.5304-13.773 0-27.178-3.1663-39.473-9.2879l4.8551 25.859-85.755 61.216c-14.723 10.554-18.154 31.083-7.652 45.807zm-24.064-197.16c7.3881 1.6359 14.987 0.31664 21.372-3.7468 6.4383-4.0635 10.871-10.396 12.507-17.784l16.624-74.673 26.016-31.927 17.995-6.0688c9.2879-3.1136 19.42 1.847 22.534 11.135 3.1664 9.288-1.847 19.42-11.135 22.534l-22.745 7.652 16.359 87.128c2.6387 13.985 10.607 26.175 22.428 34.249 11.821 8.127 26.069 11.082 40.054 8.4964l104.17-19.526 28.602 97.682c2.4275 8.3908 8.0214 15.304 15.779 19.526 4.9078 2.6914 10.291 4.0635 15.726 4.0635 3.0608 0 6.1744-0.42219 9.1823-1.3193 8.338-2.4275 15.304-8.0214 19.526-15.674 4.2218-7.7048 5.2244-16.624 2.797-25.014l-33.142-113.09c-6.5438-22.428-28.92-36.254-54.461-33.668l-68.709 6.9132-22.323-118.8c-2.6387-14.091-10.977-26.756-22.956-34.777-11.821-7.9686-25.963-10.818-39.685-7.9686-4.4857 0.89714-9.3407 1.6359-14.46 2.4803-13.563 2.1109-28.972 4.4857-42.324 10.871-20.001 9.7101-60.425 63.696-63.855 78.895l-17.468 78.525c-1.6359 7.3881-0.26385 14.987 3.7996 21.372 4.1162 6.4383 10.396 10.871 17.784 12.454z" stroke-width="1.1258"/>
</svg>
