<?xml version="1.0" encoding="UTF-8"?>
<svg width="1200pt" height="1200pt" version="1.1" viewBox="0 0 1200 1200" xmlns="http://www.w3.org/2000/svg" fill="currentColor">
 <path d="m675 195.89v-26.531h-26.109c-5.2031 0-9.375-4.1719-9.375-9.375 0-5.1562 4.1719-9.375 9.375-9.375h26.109v-26.484c0-5.1562 4.2188-9.375 9.375-9.375s9.375 4.2188 9.375 9.375v26.484h26.484c5.2031 0 9.375 4.2188 9.375 9.375 0 5.2031-4.1719 9.375-9.375 9.375h-26.109v26.531c0 5.1562-4.2188 9.375-9.375 9.375s-9.375-4.2188-9.375-9.375zm-383.48 324.98c-0.51562-4.6406-4.3594-8.2031-9-8.3906h-26.531v-27c0-5.1562-4.1719-9.375-9.375-9.375-5.1562 0-9.375 4.2188-9.375 9.375v27h-26.484c-5.1562 0-9.375 4.2188-9.375 9.375 0 5.2031 4.2188 9.375 9.375 9.375h26.766v26.531c0 5.1562 4.1719 9.375 9.375 9.375 5.1562 0 9.375-4.2188 9.375-9.375v-27h26.25c5.1562-0.09375 9.2812-4.2188 9.375-9.375zm660.24 49.266c0.14062 87.938-27.422 173.72-78.75 245.11l-20.484 29.625c-10.266 14.344-16.312 31.266-17.391 48.891-0.98438 18.516-1.6406 37.5-1.6406 55.875v72.609c0 16.594-6.5625 32.484-18.281 44.203s-27.609 18.281-44.203 18.281h-187.5c-34.5 0-62.484-27.984-62.484-62.484v-14.484c41.531-20.156 72.375-57.234 84.609-101.77 1.2656-5.0156-1.7344-10.172-6.75-11.484-2.3906-0.65625-4.9219-0.32812-7.0781 0.9375-2.1094 1.2188-3.7031 3.2812-4.3125 5.6719-11.672 42.656-42.656 77.344-83.719 93.75h-75c-24.984-0.14062-46.172-18.328-50.016-42.984l-11.391-72.234v-0.046875c-2.5781-16.031-12.234-30.047-26.344-38.109l-27.891-15.234c-11.859-6.6562-20.438-17.859-23.859-31.031-3.6094-13.078-1.6875-27.047 5.25-38.719l37.5-64.641c10.219-17.484 15.609-37.359 15.609-57.609-0.046875-35.109 6.2812-69.938 18.609-102.75 1.2656-3.8438 4.7812-6.4219 8.7656-6.5156h531.89c12.047 0 23.625 4.8281 32.109 13.406 8.4844 8.5312 13.219 20.156 13.125 32.203zm-263.26 152.86c-2.2969-1.0312-4.9219-1.125-7.2656-0.1875-2.3438 0.89062-4.2656 2.7188-5.25 5.0625l-35.859 83.766c-0.98438 2.2969-1.0312 4.9219-0.09375 7.2656s2.7656 4.2188 5.1094 5.2031c1.125 0.51563 2.3438 0.75 3.6094 0.75 3.75 0 7.1719-2.25 8.625-5.7188l35.859-83.625c2.1094-4.7812 0-10.359-4.7344-12.516zm-194.26-384.37c-6.75-0.98438-12.609-5.25-15.609-11.391l-9.6094-19.5h-0.046875c-0.79688-1.5-2.9531-1.5-3.75 0l-9.6094 19.5c-3 6.1406-8.8594 10.406-15.609 11.391l-21.516 3.1406c-0.84375 0.046875-1.5469 0.65625-1.7344 1.5-0.42188 0.65625-0.42188 1.4531 0 2.1094l15.609 15.141c4.875 4.7812 7.125 11.625 6 18.375l-3.2344 21.094c-0.14062 0.79688 0.1875 1.5938 0.84375 2.0156 0.65625 0.46875 1.5 0.46875 2.1562 0l19.266-10.125h-0.046875c6.0938-3.0938 13.312-3.0938 19.406 0l19.266 10.125h-0.046875c0.70312 0.51562 1.5938 0.51562 2.25 0 0.70312-0.42188 0.98438-1.2188 0.75-2.0156l-3.6094-21.516v0.046875c-1.125-6.75 1.125-13.594 6-18.375l15.516-15.141c0.375-0.65625 0.375-1.4531 0-2.1094-0.23438-0.84375-0.9375-1.4531-1.7812-1.5zm451.74-171.52c-295.97 34.875-386.48 261.52-408.47 339.66h67.641c21.328-81.75 137.58-248.26 382.97-278.63l10.5-2.1094v-12.516c0-13.312-5.6719-25.969-15.609-34.781-10.125-8.9531-23.578-13.219-37.031-11.625zm-249.98 339.61 54 0.046875c53.859-81.844 139.26-137.68 235.87-154.13l12.516-2.4844v-47.156l-8.1094 1.125c-156.89 21.984-247.55 125.48-294.42 202.64zm-71.859 0h50.016c46.969-81.703 142.36-197.11 313.36-221.21l10.734-1.5v-38.906l-7.5 1.5c-232.87 28.406-343.64 186.52-366.74 260.16zm-33-310.22c26.344 24.891 44.391 57.281 51.75 92.766-58.969 61.078-101.91 135.79-125.02 217.5h-142.87c-1.0781-0.09375-2.1562-0.09375-3.2344 0-4.0312-19.219-13.969-36.703-28.406-50.016-46.453-44.25-65.812-109.97-50.719-172.36 15.047-62.391 62.297-111.98 123.84-130.13 61.594-18.094 128.16-2.0156 174.66 42.234zm-132.37 61.359c0 5.2031 4.1719 9.375 9.375 9.375 5.1562 0 9.375-4.1719 9.375-9.375v-24.984c0-5.1562-4.2188-9.375-9.375-9.375-5.2031 0-9.375 4.2188-9.375 9.375zm-71.25 20.625 18.75 24.984v0.046875c1.7812 2.2969 4.5469 3.6094 7.5 3.6094 2.0625 0 4.0781-0.65625 5.7188-1.875 4.0781-3.2344 4.8281-9.1406 1.6406-13.266l-18.75-24.984c-3.1875-4.125-9.0938-4.875-13.172-1.6875-4.125 3.1875-4.875 9.0938-1.6875 13.172zm147.74 59.016c-2.3906-7.5469-8.9062-13.078-16.781-14.109l-21.516-3.1406h0.046875c-0.70312-0.09375-1.3125-0.51562-1.6406-1.125l-9.6094-19.125c-3.2344-7.4531-10.5-12.375-18.656-12.516-7.9219 0-15.141 4.5-18.609 11.625l-9.6094 19.5c-0.375 0.60938-0.9375 1.0312-1.6406 1.125l-21.516 3.1406c-7.9688 1.125-14.531 6.8438-16.734 14.625-2.5312 7.5469-0.46875 15.844 5.25 21.375l15.516 15.141c0.46875 0.46875 0.70312 1.1719 0.60938 1.875l-3.6094 21.375c-1.4062 7.7812 1.8281 15.656 8.25 20.25 3.5625 2.6719 7.9688 4.0781 12.469 3.9844 3.375 0 6.6562-0.79688 9.6562-2.3906l19.266-10.125h-0.046875c0.65625-0.28125 1.4062-0.28125 2.0156 0l19.266 10.125c6.9844 3.7031 15.516 3.0938 21.938-1.5938 6.375-4.6406 9.5625-12.562 8.1562-20.391l-3.6094-21.375c-0.28125-0.60938-0.28125-1.2656 0-1.875l15.891-15.141c5.6719-5.4844 7.6875-13.734 5.25-21.234zm9.5156-72.141h-0.046875c-4.1719-3.0469-10.031-2.2969-13.219 1.7812l-18.75 24.984c-3.1406 4.1719-2.3906 10.078 1.7344 13.266 1.6875 1.2188 3.7031 1.8281 5.7656 1.875 2.8594 0 5.625-1.3594 7.3594-3.6562l18.75-24.984c1.5469-1.9688 2.2969-4.5 1.9688-7.0312-0.32812-2.4844-1.5938-4.7812-3.6094-6.3281zm228.47 241.4h90.141c22.266-32.016 57.141-53.062 95.859-57.891 22.641-3.5625 39.328-23.062 39.375-45.984v-33.75l-9.2344 1.875c-87.141 15-164.76 63.797-216.14 135.74z"/>
</svg>
