<?xml version="1.0" encoding="UTF-8"?>
<svg width="1200pt" height="1200pt" fill="currentColor" version="1.1" viewBox="0 0 1200 1200" xmlns="http://www.w3.org/2000/svg">
 <path d="m908.25 161.72c-84.521-5e-5 -169.04-6e-3 -253.56 0.0339-11.667 0.41057-22.607 8.6985-26.107 19.844-3.2112 9.5982-0.8862 20.853 6.0149 28.289 5.7326 6.3521 14.364 9.9838 22.921 9.5298 12.338 5e-3 24.676 0.0107 37.015 0.0162v56.379c-48.875 12.797-95.104 35.508-135.22 66.205-49.411 37.722-89.58 87.475-115.92 143.79-17.4 37.104-28.889 76.983-33.788 117.68-7.1248 58.655-0.91111 118.95 18.515 174.78 16.201 46.787 41.502 90.395 74.041 127.71 30.826 35.424 68.11 65.231 109.55 87.336 38.763 20.734 81.141 34.711 124.65 40.995 58.608 8.5161 119.21 3.3683 175.43-15.32 46.361-15.35 89.693-39.733 126.96-71.282 39.584-33.463 72.417-74.897 95.8-121.16 19.023-37.505 31.871-78.134 37.843-119.76 9.1622-63.545 2.5596-129.38-19.592-189.67-16.527-45.216-41.582-87.294-73.445-123.38-31.604-35.828-69.833-65.831-112.29-87.762-24.879-12.869-51.172-23.023-78.272-30.116v-56.412c13.617-0.0139 27.237 0.0652 40.853-0.10691 11.448-0.81778 21.95-9.1903 25.23-20.201 3.0718-9.6936 0.54257-20.976-6.5528-28.3-5.6875-6.0463-14.045-9.5012-22.35-9.1004-5.9082-0.0333-11.816-0.0166-17.725-0.011zm-77.364 57.709v45.887c-26.071-2.6589-52.416-2.6538-78.488 0v-45.887h78.488zm-401.31 85.742c-85.165 9e-3 -170.33 8e-3 -255.49 0-0.04 0.49149 0.67421 1.4167-0.0632 1.507-9.702 3.2532-17.429 11.954-19.2 22.074-1.8579 9.7931 1.6767 20.502 9.2703 27.026 5.7824 5.1281 13.655 7.7497 21.356 7.2465 81.372 0.0363 162.74 0.0278 244.12-0.0164 3.0199 0.0526 6.0565-0.26228 8.9437-1.1806 9.1158-2.75 16.768-10.181 19.402-19.381 2.9841-9.8145 0.3334-21.191-6.943-28.48-5.5246-5.6865-13.45-8.9989-21.389-8.7956zm362.09 16.019c7.916 0.0425 15.732 0.29474 23.626 0.85914 4.309 0.30813 8.7753 0.71445 13.095 1.1998 16.755 1.8877 33.451 5.0843 49.689 9.548 9.855 2.7056 19.654 5.9004 29.111 9.5026 16.078 6.1143 31.672 13.502 46.581 22.083 7.2597 4.191 14.496 8.7282 21.435 13.479 31.45 21.483 59.089 48.506 81.336 79.417 21.098 29.295 37.428 62.224 47.883 96.848 4.2579 14.014 7.5751 28.405 9.9195 42.805 2.0571 12.692 3.3798 25.421 3.97 38.279 0.3861 8.5126 0.4612 17.147 0.2005 25.725-0.1987 7.0467-0.644 14.26-1.3025 21.293-2.9605 31.824-10.568 63.371-22.595 93.085-12.949 32.11-31.022 62.139-53.302 88.638-14.996 17.851-31.832 34.054-50.238 48.348-21.781 16.916-45.796 31.113-71.174 42.008-11.774 5.0609-24 9.4704-36.359 13.094-12.165 3.5774-24.743 6.4908-37.357 8.6202-8.4262 1.4224-17.081 2.5236-25.661 3.2778-4.484 0.39472-8.8826 0.69423-13.398 0.90892-9.0819 0.43413-18.354 0.46194-27.404 0.14993-20.265-0.74074-40.464-3.342-60.242-7.8264-6.4921-1.4709-13.082-3.1884-19.476-5.0566-30.375-8.8898-59.681-22.419-86.272-39.855-9.9698-6.511-19.64-13.644-28.795-21.167-18.004-14.829-34.434-31.565-48.925-49.842-9.235-11.668-17.774-24.078-25.376-36.938-6.5618-11.092-12.541-22.683-17.769-34.519-6.063-13.684-11.224-27.945-15.356-42.35-2.6912-9.3674-4.9591-18.881-6.8052-28.419-2.7232-14.102-4.5187-28.384-5.407-42.692-0.8512-13.804-0.86026-27.665-0.0183-41.46 0.23681-3.8205 0.53764-7.7766 0.9069-11.595 3.1946-33.563 11.554-66.708 24.779-97.764 4.927-11.605 10.611-23.095 16.896-34.121 2.3688-4.1626 4.8862-8.3625 7.4409-12.426 11.214-17.805 24.081-34.516 38.487-49.873 26.378-28.145 57.802-51.727 92.356-68.991 22.084-11.053 45.434-19.583 69.455-25.32 6.6472-1.5858 13.49-2.9997 20.188-4.1589 14.657-2.5464 29.449-4.06 44.338-4.5784 3.795-0.13312 7.7039-0.20208 11.54-0.21526zm-3.568 88.994c-6.7044 0.1072-13.411 2.4128-18.54 6.7787-6.1408 5.1265-10.069 12.869-10.328 20.889-0.18646 4.2538 0.0313 8.5122-0.0529 12.768 5e-3 77.57 2e-3 155.14 0.042 232.71 0.41405 11.577 8.5703 22.458 19.61 26.016 4.657 1.629 9.6587 1.6603 14.532 1.5335 45.339-8e-3 90.678 0.0284 136.02-0.0594 11.539-0.53796 22.301-8.7657 25.775-19.794 3.3208-9.909 0.80747-21.587-6.5288-29.082-5.8036-6.0988-14.341-9.4593-22.745-8.9643-36.328-3e-3 -72.656-6e-3 -108.98-0.0104v-215.9c-0.61588-5.8579-2.7034-11.647-6.5195-16.19-4.8331-5.9323-12.077-9.8301-19.7-10.548-0.85318-0.12367-1.7171-0.1793-2.5788-0.14413zm-452.49 53.463c-82.616 1e-3 -165.23-3e-3 -247.85 0.0401-11.549 0.42582-22.386 8.5579-25.975 19.552-3.3334 9.621-1.0793 20.982 5.8386 28.488 5.725 6.407 14.392 10.072 22.983 9.6208 76.13 0.0326 152.26 0.019 228.39-9e-3 6.3171-0.0232 12.636 0.0312 18.952-0.0407 11.363-0.59102 21.951-8.6181 25.526-19.432 3.3568-9.583 1.1717-20.917-5.681-28.446-5.5274-6.2426-13.829-9.9864-22.187-9.7725zm-36.761 158.31c-80.237 0.0119-160.47-3e-3 -240.71 0.0315-3.8517 0.0909-7.7607-0.29243-11.551 0.57898-10.014 2.0886-18.723 9.8084-21.673 19.651-3.0955 9.7716-0.59232 21.168 6.5817 28.548 5.7945 6.1562 14.37 9.5431 22.807 9.0503 82.196 2e-3 164.39 0.0335 246.59-0.032 11.547-0.42705 22.379-8.5618 25.963-19.555 3.4662-10.034 0.90582-21.953-6.6328-29.487-5.5197-5.6815-13.442-8.9892-21.373-8.7854zm36.749 158.31c-82.602 0.032-165.2-0.0211-247.81 0.0462-11.556 0.41341-22.418 8.5415-26.001 19.549-3.4228 9.9137-0.97898 21.668 6.3625 29.214 5.7864 6.1451 14.339 9.5395 22.764 9.0504 81.668 0.0143 163.34 0.0258 245-0.0218 7.3509 0.18661 14.616-2.8154 19.967-7.8038 5.4758-4.9994 8.7972-12.222 9.1118-19.622 0.40702-8.1182-2.6649-16.418-8.5611-22.069-5.4742-5.3858-13.147-8.5216-20.84-8.343zm94.13 158.31c-82.616 0.029-165.23-0.0199-247.85 0.046-11.558 0.40973-22.414 8.5422-26.003 19.547-3.4175 9.9238-0.9779 21.692 6.3833 29.236 5.7695 6.1046 14.274 9.5035 22.664 9.0261 82.198 4e-3 164.4 0.0332 246.59-0.0216 11.537-0.38507 22.399-8.4516 26.035-19.42 3.5292-10.039 1.0042-22.001-6.529-29.574-5.4964-5.6791-13.378-9.0119-21.294-8.8397z" stroke-width="1.0427"/>
</svg>
