<?xml version="1.0" encoding="UTF-8"?>
<svg width="1200pt" height="1200pt" version="1.1" viewBox="0 0 1200 1200" xmlns="http://www.w3.org/2000/svg" fill="currentColor">
 <path d="m450.12 616.16 70.535-69.059c-35.688-13.355-61.715-47.867-61.715-88.164 0-51.863 42.18-94.043 94.043-94.043h149.88l85.223-85.223v-8.8203l-141.07-0.003907v-94.043h-94.043v94.043c-103.73 0-188.07 84.359-188.07 188.07-0.003907 65.977 33.742 123.66 85.223 157.24z"/>
 <path d="m749.88 583.84-70.535 69.059c35.688 13.355 61.715 47.867 61.715 88.164 0 51.863-42.18 94.043-94.043 94.043h-149.88l-85.223 85.223v8.8203h141.06v94.043h94.043v-94.043c103.73 0 188.07-84.359 188.07-188.07 0.015625-65.973-33.73-123.66-85.211-157.23z"/>
 <path d="m600 24c-318.12 0-576 257.88-576 576s257.88 576 576 576 576-257.88 576-576-257.88-576-576-576zm0 1046.2c-113.12 0-217.29-39.574-298.29-105.79l662.7-662.7c66.227 81 105.79 185.16 105.79 298.29 0 260.24-209.96 470.21-470.21 470.21zm0-940.41c113.12 0 217.29 39.574 298.29 105.79l-662.69 662.7c-66.227-81-105.79-185.17-105.79-298.29-0.011719-260.24 209.95-470.21 470.2-470.21z"/>
</svg>
